<svg xmlns="http://www.w3.org/2000/svg" xmlns:xlink="http://www.w3.org/1999/xlink" preserveAspectRatio="xMidYMid" width="119" height="71" viewBox="0 0 119 71">
  <defs>
    <style>
      .cls-1, .cls-2, .cls-3, .cls-4, .cls-5 {
        fill: #fff;
      }

      .cls-1, .cls-3, .cls-4 {
        fill-rule: evenodd;
      }

      .cls-3 {
        opacity: 0.9;
      }

      .cls-4 {
        opacity: 0.7;
      }

      .cls-5 {
        opacity: 0.5;
      }
    </style>
  </defs>
  <g>
    <path d="M19.000,71.000 L19.000,0.000 L100.000,0.000 L100.000,71.000 L19.000,71.000 ZM98.000,2.000 L21.000,2.000 L21.000,59.000 L98.000,59.000 L98.000,2.000 Z" class="cls-1"/>
    <circle cx="52" cy="20" r="6" class="cls-2"/>
    <path d="M88.354,47.380 L70.000,29.026 L55.084,43.942 L60.142,49.000 L58.704,50.438 L46.500,38.235 L46.438,38.296 L46.000,37.858 L33.358,50.500 L31.858,49.000 L46.000,34.858 L53.584,42.442 L70.000,26.026 L89.854,45.880 L88.354,47.380 Z" class="cls-3"/>
    <g>
      <path d="M17.000,11.000 L7.000,11.000 L7.000,49.000 L17.000,49.000 L17.000,60.000 L5.000,60.000 L5.000,9.000 L17.000,9.000 L17.000,11.000 Z" class="cls-4"/>
      <path d="M102.000,11.000 L112.000,11.000 L112.000,49.000 L102.000,49.000 L102.000,60.000 L114.000,60.000 L114.000,9.000 L102.000,9.000 L102.000,11.000 Z" class="cls-4"/>
      <rect x="117" y="18" width="2" height="31" class="cls-5"/>
      <rect y="18" width="2" height="31" class="cls-5"/>
    </g>
  </g>
</svg>
